<?xml version="1.0" encoding="UTF-8" standalone="no"?>
<svg
   xmlns:dc="http://purl.org/dc/elements/1.1/"
   xmlns:cc="http://creativecommons.org/ns#"
   xmlns:rdf="http://www.w3.org/1999/02/22-rdf-syntax-ns#"
   xmlns:svg="http://www.w3.org/2000/svg"
   xmlns="http://www.w3.org/2000/svg"
   xmlns:sodipodi="http://sodipodi.sourceforge.net/DTD/sodipodi-0.dtd"
   xmlns:inkscape="http://www.inkscape.org/namespaces/inkscape"
   viewBox="0 0 57.994225 58.000374"
   x="0px"
   y="0px"
   version="1.1"
   id="svg26"
   sodipodi:docname="noun_clap_2345415.svg"
   width="57.994225"
   height="58.000374"
   inkscape:version="0.92.4 (5da689c313, 2019-01-14)">
  <metadata
     id="metadata32">
    <rdf:RDF>
      <cc:Work
         rdf:about="">
        <dc:format>image/svg+xml</dc:format>
        <dc:type
           rdf:resource="http://purl.org/dc/dcmitype/StillImage" />
        <dc:title>15 Clap Hand</dc:title>
      </cc:Work>
    </rdf:RDF>
  </metadata>
  <defs
     id="defs30" />
  <sodipodi:namedview
     pagecolor="#ffffff"
     bordercolor="#666666"
     borderopacity="1"
     objecttolerance="10"
     gridtolerance="10"
     guidetolerance="10"
     inkscape:pageopacity="0"
     inkscape:pageshadow="2"
     inkscape:window-width="1469"
     inkscape:window-height="933"
     id="namedview28"
     showgrid="false"
     fit-margin-top="0"
     fit-margin-left="0"
     fit-margin-right="0"
     fit-margin-bottom="0"
     inkscape:zoom="2.95"
     inkscape:cx="28.994255"
     inkscape:cy="21.000373"
     inkscape:window-x="0"
     inkscape:window-y="0"
     inkscape:window-maximized="0"
     inkscape:current-layer="svg26" />
  <title
     id="title2">15 Clap Hand</title>
  <g
     data-name="15 Clap Hand"
     id="g20"
     transform="translate(-3.0057445,-3)">
    <path
       d="m 54.354,21.747 a 2.992,2.992 0 0 0 -3.422,-2.516 5.005,5.005 0 0 0 -4.175,5.722 l 0.714,4.587 -2.448,-4.235 0.639,-1.107 a 4.083,4.083 0 0 0 -1.2,-5.5 3.983,3.983 0 0 0 -2.17,-0.646 h -0.005 l 0.267,-0.461 a 3.979,3.979 0 0 0 -6.055,-5 3.965,3.965 0 0 0 -1.787,-1.826 4.08,4.08 0 0 0 -5.365,1.705 l -1.184,2.05 a 3.976,3.976 0 0 0 -1.646,-1.559 4.078,4.078 0 0 0 -5.366,1.7 L 9.4,35.016 a 7.464,7.464 0 0 0 -0.528,4.417 7.464,7.464 0 0 0 0.956,2.842 l -2.131,3.69 A 2,2 0 0 0 8.424,48.7 l 12.99,7.5 a 2,2 0 0 0 2.732,-0.731 l 2.105,-3.645 a 4.1,4.1 0 0 0 0.61,0.049 10.421,10.421 0 0 0 2.617,-0.458 l 0.16,-0.043 c 0.032,-0.009 0.065,-0.019 0.1,-0.031 l 0.244,-0.093 1.042,1.807 a 7.476,7.476 0 0 0 3.561,2.665 7.974,7.974 0 0 0 2.685,0.6 c 0.084,0 0.161,-0.018 0.244,-0.023 L 39.648,60 a 2,2 0 0 0 2.733,0.732 l 12.99,-7.5 A 2,2 0 0 0 56.1,50.5 L 54,46.857 a 8.378,8.378 0 0 0 1.268,-3.033 l 1.157,-7.043 a 5.2,5.2 0 0 0 0.086,-2.055 z m -8.617,8.791 c 0,0.008 0.011,0.014 0.016,0.022 a 5.04,5.04 0 0 0 -1.667,2.984 4.951,4.951 0 0 0 -1.612,0.487 c -0.009,0 -0.018,0.006 -0.027,0.011 a 5.011,5.011 0 0 0 -0.848,0.549 l -0.721,0.581 -2.891,2.328 2.342,-4.064 3.54,-6.131 z m -23.822,24.793 0.5,-0.865 v 0 z m 0.5,-0.866 -12.989,-7.5 2,-3.464 6.494,3.75 6.5,3.75 z m 6.542,-4.985 c -0.7,0.19 -2.164,0.583 -2.676,0.289 l -14.7,-8.489 c -0.547,-0.457 -1.3,-3.79 -0.451,-5.264 L 22.878,15.662 a 2.217,2.217 0 0 1 1.887,-1.122 1.84,1.84 0 0 1 0.835,0.2 2,2 0 0 1 0.827,2.778 v 0 l -4,6.928 a 1,1 0 1 0 1.732,1 l 4,-6.926 v 0 -0.005 l 2.916,-5.049 a 2.113,2.113 0 0 1 2.721,-0.926 2,2 0 0 1 0.826,2.782 v 0 l -7,12.124 a 1.000411,1.000411 0 0 0 1.733,1 l 7,-12.124 0.918,-1.59 a 2.113,2.113 0 0 1 2.72,-0.925 2,2 0 0 1 0.825,2.783 l -2,3.458 v 0.006 l -6,10.392 a 1.000411,1.000411 0 0 0 1.733,1 l 6,-10.392 a 2,2 0 0 1 2.822,-0.677 2.112,2.112 0 0 1 0.557,2.823 l -0.909,1.574 c -0.006,0.01 -0.016,0.018 -0.022,0.029 l -4.075,7.068 -2.676,4.636 a 2,2 0 0 0 2.985,2.558 l 3.618,-2.911 a 3.019,3.019 0 0 1 4.224,0.453 1.009,1.009 0 0 1 0.079,1.142 v 0.006 a 1.046,1.046 0 0 1 -0.21,0.236 c -0.011,0.01 -0.018,0.019 -0.031,0.029 l -6.487,5.339 -3.679,3.026 c -0.071,0.058 -0.152,0.1 -0.227,0.15 a 3.37,3.37 0 0 1 -0.991,0.46 h -0.008 l -0.333,0.127 -5.123,1.942 c -0.011,0.005 -0.018,0.015 -0.029,0.019 l -0.962,0.366 z m 12.424,9.52 -2,-3.464 12.99,-7.5 2,3.463 z m 13.1,-22.667 a 0.806,0.806 0 0 0 -0.019,0.088 l -1.089,6.763 -0.034,0.13 c -0.188,0.71 -0.577,2.189 -1.1,2.49 l -6.351,3.666 -8.357,4.824 c -0.676,0.239 -3.929,-0.774 -4.78,-2.243 l -0.88,-1.527 4.312,-1.641 a 5.013,5.013 0 0 0 0.784,-0.31 c 0.053,-0.025 0.112,-0.038 0.164,-0.064 a 5.079,5.079 0 0 0 0.53,-0.347 c 0.115,-0.079 0.241,-0.14 0.35,-0.229 l 3.483,-2.868 6.69,-5.5 a 3.414,3.414 0 0 0 0.37,-0.36 c 0.007,-0.009 0.018,-0.016 0.025,-0.025 a 2.955,2.955 0 0 0 0.317,-0.441 3,3 0 0 0 -0.26,-3.386 4.749,4.749 0 0 0 -0.4,-0.4 c -0.1,-0.1 -0.191,-0.214 -0.3,-0.3 a 4.8,4.8 0 0 0 -0.4,-0.271 4.743,4.743 0 0 0 -0.417,-0.28 4.877,4.877 0 0 0 -0.46,-0.2 C 46.514,33.841 46.375,33.767 46.224,33.72 46.181,33.707 46.136,33.703 46.093,33.691 a 3.348,3.348 0 0 1 1.868,-2.217 c 0.055,-0.014 0.11,-0.023 0.164,-0.042 a 1.973,1.973 0 0 0 1.313,-2.192 l -0.71,-4.59 a 3,3 0 0 1 0.541,-2.242 2.972,2.972 0 0 1 1.953,-1.194 1,1 0 0 1 1.03,0.486 1.031,1.031 0 0 1 0.122,0.367 l 2.163,12.983 a 3.2,3.2 0 0 1 -0.061,1.283 z"
       id="path4"
       inkscape:connector-curvature="0" />
    <path
       d="M 32,8 A 1,1 0 0 0 33,7 V 4 a 1,1 0 0 0 -2,0 v 3 a 1,1 0 0 0 1,1 z"
       id="path6"
       inkscape:connector-curvature="0" />
    <path
       d="m 20.134,8.5 a 1,1 0 1 0 1.732,-1 l -1.5,-2.6 a 1,1 0 1 0 -1.732,1 z"
       id="path8"
       inkscape:connector-curvature="0" />
    <path
       d="m 11.414,12.828 a 1,1 0 0 0 1.414,-1.414 L 10.707,9.293 a 1,1 0 0 0 -1.414,1.414 z"
       id="path10"
       inkscape:connector-curvature="0" />
    <path
       d="m 7.1,18.134 -2.6,-1.5 a 1,1 0 0 0 -1,1.732 l 2.6,1.5 a 1,1 0 1 0 1,-1.732 z"
       id="path12"
       inkscape:connector-curvature="0" />
    <path
       d="M 42.5,8.866 A 1,1 0 0 0 43.866,8.5 l 1.5,-2.6 a 1,1 0 1 0 -1.732,-1 l -1.5,2.6 A 1,1 0 0 0 42.5,8.866 Z"
       id="path14"
       inkscape:connector-curvature="0" />
    <path
       d="m 51.879,13.121 a 1,1 0 0 0 0.707,-0.293 l 2.121,-2.121 A 1,1 0 0 0 53.293,9.293 l -2.121,2.121 a 1,1 0 0 0 0.707,1.707 z"
       id="path16"
       inkscape:connector-curvature="0" />
    <path
       d="M 60.866,17 A 1,1 0 0 0 59.5,16.634 l -2.6,1.5 a 1,1 0 1 0 1,1.732 l 2.6,-1.5 A 1,1 0 0 0 60.866,17 Z"
       id="path18"
       inkscape:connector-curvature="0" />
  </g>
</svg>
